<mxfile host="app.diagrams.net" modified="2024-02-27T03:16:39.776Z" agent="Mozilla/5.0 (Macintosh; Intel Mac OS X 10_15_7) AppleWebKit/537.36 (KHTML, like Gecko) Chrome/122.0.0.0 Safari/537.36" version="23.1.7" etag="Mmw2tH8VySXOJdK3SvfH" type="github">
  <diagram name="第 1 页" id="BGES3wgCWm6-45K1lgQk">
    <mxGraphModel>
      <root>
        <mxCell id="0" />
        <mxCell id="1" parent="0" />
      </root>
    </mxGraphModel>
  </diagram>
</mxfile>
